HIERARCHY
ROOT Hips
{
	OFFSET	0.00	0.00	0.00
	CHANNELS 6 Xposition Yposition Zposition Zrotation Xrotation Yrotation
	JOINT Spine
	{
		OFFSET	 0.00	0.01	 0.00
		CHANNELS 3 Zrotation Xrotation Yrotation
		JOINT Spine1
		{
			OFFSET	 0.00	 2.45913012437421	 0.00
			CHANNELS 3 Zrotation Xrotation Yrotation
            JOINT Neck
            {
                OFFSET	 0.00	 2.48462964506057	 0.00
                CHANNELS 3 Zrotation Xrotation Yrotation
                JOINT Head
                {
                    OFFSET	 0.00	 0.927524780924562	 0.00
                    CHANNELS 3 Zrotation Xrotation Yrotation
                    End Site 
                    {
                        OFFSET	 0.00	 1.14999962169752	 0.00
                    }
                }
            }
			JOINT LeftShoulder
			{
				OFFSET	 0.00	 2.48462964506057	 0.00
				CHANNELS 3 Zrotation Xrotation Yrotation
				JOINT LeftUpArm
				{
					OFFSET	 0.00	 1.24881979654096	 0.00
					CHANNELS 3 Zrotation Xrotation Yrotation
					JOINT LeftForeArm
					{
						OFFSET	 0.00	2.59758046908119	 0.00
						CHANNELS 3 Zrotation Xrotation Yrotation
						JOINT LeftHand
						{
							OFFSET	 0.00	2.45542024364365	 0.00
							CHANNELS 3 Zrotation Xrotation Yrotation
							JOINT LeftHandThumb 
							{
								OFFSET	 0.00	0.00	 0.00
								CHANNELS 3 Zrotation Xrotation Yrotation
								End Site
								{
									OFFSET	 0.00	0.00	1.00000003353624
								}
							}
							JOINT L_Wrist_End 
							{
								OFFSET	 0.00	0.99999967115358	 0.00
								CHANNELS 3 Zrotation Xrotation Yrotation
								End Site 
								{
									OFFSET	 0.00	 0.00	 0.00
								}
							}
						}
					}
				}
			}
			JOINT RightShoulder
			{
				OFFSET	 0.00	 2.48462964506057	 0.00
				CHANNELS 3 Zrotation Xrotation Yrotation
				JOINT RightUpArm
				{
					OFFSET	 0.00	 1.24881979654096	 0.00
					CHANNELS 3 Zrotation Xrotation Yrotation
					JOINT RightForeArm
					{
						OFFSET	 0.00	2.59758046908119	 0.00
						CHANNELS 3 Zrotation Xrotation Yrotation
						JOINT RightHand
						{
							OFFSET	 0.00	2.45542024364365	 0.00
							CHANNELS 3 Zrotation Xrotation Yrotation
							JOINT RightHandThumb 
							{
								OFFSET	 0.00	0.00	 0.00
								CHANNELS 3 Zrotation Xrotation Yrotation
								End Site
								{
									OFFSET	 0.00	0.00	1.00000003353624
								}
							}
							JOINT R_Wrist_End 
							{
								OFFSET	 0.00	0.99999967115358	 0.00
								CHANNELS 3 Zrotation Xrotation Yrotation
								End Site 
								{
									OFFSET	 0.00	 0.00	 0.00
								}
							}
						}
					}
				}
			}
		}
	}
	JOINT LeftUpLeg
	{
		OFFSET	 1.2719394002717	 0.00	 0.00
		CHANNELS 3 Zrotation Xrotation Yrotation
		JOINT LeftLowLeg
		{
			OFFSET	 0.00	-4.3429100912261	 0.00
			CHANNELS 3 Zrotation Xrotation Yrotation
			JOINT LeftFoot
			{
				OFFSET	 0.00	-4.48767017425826	 0.00
				CHANNELS 3 Zrotation Xrotation Yrotation
				JOINT LeftToeBase
                {
                    OFFSET	 0.00	0.00	 1.51507020887566
                    CHANNELS 3 Zrotation Xrotation Yrotation
                    End Site 
                    {
                        OFFSET	 0.00	0.00	 0.75000010571191
                    }
                }
			}
		}
	}
	JOINT RightUpLeg
	{
		OFFSET	 -1.2719393604653	 0.00	 0.00
		CHANNELS 3 Zrotation Xrotation Yrotation
		JOINT RightLowLeg
		{
			OFFSET	 0.00	-4.3429100912261	 0.00
			CHANNELS 3 Zrotation Xrotation Yrotation
			JOINT RightFoot
			{
				OFFSET	 0.00	-4.48767017425826	 0.00
				CHANNELS 3 Zrotation Xrotation Yrotation
				JOINT RightToeBase
                {
                    OFFSET	 0.00	0.00	 1.51507020887566
                    CHANNELS 3 Zrotation Xrotation Yrotation
                    End Site 
                    {
                        OFFSET	 0.00	0.00	 0.749999965609858
                    }
                }   
			}
		}
	}
}
MOTION 
Frames:	10 
Frame Time: 0.02 
  -5.945230102539062 7.902650146484375 9.168419799804688 44.4577 84.7122 109.471 -5.46928 -6.28775 -0.553269 13.4011 -2.64851 -3.53004 -0.668719 46.0052 699.198 85.4546 -72.7046 782.655 -126.4748 -1.41286 6.41298 -36.3673 6.4328 27.9583 0.0 19.4937 0.0 11.7164 -9.20716 -4.35486 0.0 0.0 0.0 0.0 0.0 0.0 111.5376 2.25627 -375.808 13.5396 4.13116 -21.2029 0.0 86.0546 0.0 2.70514 24.8738 48.6636 0.0 0.0 0.0 0.0 0.0 0.0 -0.552876 -3.74804 -1.61114 0.0 12.1447 0.0 -10.9192 2.9109 -4.41291 0.0 -29.7471 0.0 4.17428 -16.6805 4.50317 0.0 58.8402 0.0 16.6828 15.627695 9.52628 0.0 -47.9685 0.0 
  -5.917009887695312 7.988309936523438 9.17301025390625 46.5114 84.5199 107.75 -5.50362 -5.78709 -0.733886 13.6942 -2.88491 -3.67798 -0.767469 45.8519 699.563 85.3565 -72.5307 782.487 -126.4453 -1.2245 6.4136 -36.3367 7.11968 28.3249 0.0 20.1116 0.0 12.1713 -9.06997 -4.17144 0.0 0.0 0.0 0.0 0.0 0.0 111.4093 2.25537 -375.81 13.5086 4.02959 -21.0082 0.0 86.179 0.0 2.76621 24.8832 48.648 0.0 0.0 0.0 0.0 0.0 0.0 -0.323126 -2.93052 -1.39962 0.0 11.8508 0.0 -11.0283 2.7881002 -4.99425 0.0 -29.5405 0.0 4.52445 -17.9057 3.77188 0.0 57.3239 0.0 14.734 12.270309 7.54636 0.0 -47.3302 0.0 
  -5.8877001953125 8.07416015625 9.176740112304687 47.9946 84.2954 106.542 -5.52731 -5.38417 -0.826226 14.0458 -2.99691 -3.75485 -1.04873 45.3988 700.168 85.1427 -72.3835 781.955 -126.4445 -0.943474 6.32762 -36.3985 7.71515 28.5479 0.0 20.7326 0.0 12.5034 -8.81181 -3.82979 0.0 0.0 0.0 0.0 0.0 0.0 111.268 2.14372 -375.81 13.3954 3.98778 -20.7619 0.0 86.3334 0.0 2.85254 24.927 48.8007 0.0 0.0 0.0 0.0 0.0 0.0 -0.103449 -2.13114 -1.59223 0.0 11.4969 0.0 -11.0263 2.54 -5.09875 0.0 -29.8959 0.0 4.93253 -18.8834 3.18002 0.0 54.889 0.0 12.4499 9.16321 5.43665 0.0 -45.717697 0.0 
  -5.857639770507813 8.157550048828124 9.179320068359376 48.1193 84.1054 106.776 -5.61218 -5.03537 -0.935111 14.4197 -3.16375 -3.83234 -1.17492 45.0647 700.46 85.4698 -72.3023 782.04 -126.5237 -0.753079 6.20928 -36.4449 8.19091 28.876 0.0 21.582 0.0 13.058 -8.63983 -3.77333 0.0 0.0 0.0 0.0 0.0 0.0 111.1357 2.02032 -375.91 13.2102 3.92277 -20.4632 0.0 86.5289 0.0 2.59195 24.9686 48.8334 0.0 0.0 0.0 0.0 0.0 0.0 0.049683 -1.51201 -1.81638 0.0 11.2647 0.0 -11.1854 2.3662004 -5.26901 0.0 -29.57 0.0 5.25412 -19.6922 2.61146 0.0 51.5819 0.0 10.4636 7.02105 3.01192 0.0 -44.8811 0.0 
  -5.823300170898437 8.246400146484374 9.17906982421875 46.7377 83.8808 108.293 -5.72201 -5.13965 -0.959106 14.8976 -2.93111 -3.88298 -1.47099 44.5485 700.88 85.5678 -72.292 781.959 -126.6334 -0.596246 6.19344 -36.5624 8.7673 28.9525 0.0 22.4358 0.0 13.4125 -8.33063 -4.33418 0.0 0.0 0.0 0.0 0.0 0.0 110.9387 1.93879 -375.842 13.0438 3.88493 -20.139 0.0 86.7429 0.0 2.85733 25.1756 48.5393 0.0 0.0 0.0 0.0 0.0 0.0 0.209522 -0.880106 -1.69147 0.0 10.8134 0.0 -11.2876 2.1591997 -5.48863 0.0 -29.4321 0.0 5.63498 -20.3601 2.41285 0.0 47.4704 0.0 9.76272 6.36279 0.637429 0.0 -43.8776 0.0 
  -5.78864990234375 8.331900024414063 9.177080078125 45.1577 83.6727 110.11 -5.83656 -5.13585 -1.02907 15.3446 -2.83747 -3.95835 -1.74276 43.9366 701.314 85.729 -72.2497 781.937 -126.747604 -0.448879 6.25479 -36.6976 9.247 29.1642 0.0 23.2972 0.0 14.0452 -8.00755 -4.63009 0.0 0.0 0.0 0.0 0.0 0.0 110.7376 1.88387 -375.731 12.8844 3.76356 -19.9496 0.0 87.0781 0.0 2.90076 25.2019 48.4583 0.0 0.0 0.0 0.0 0.0 0.0 0.331888 -0.419964 -1.79788 0.0 10.5655 0.0 -11.1946 1.8551998 -5.55431 0.0 -29.4276 0.0 5.97989 -20.8338 2.36787 0.0 42.7372 0.0 8.9961 6.8032503 -1.67923 0.0 -43.7589 0.0 
  -5.752100219726563 8.41718994140625 9.172230224609375 43.0337 83.5171 112.452 -5.98478 -5.11056 -1.09748 15.7407 -2.87826 -4.00389 -2.00312 43.4706 701.699 85.9268 -72.2358 781.92 -126.8667 -0.476573 6.39419 -36.8598 9.73951 29.2783 0.0 24.2279 0.0 14.1963 -7.80763 -5.73505 0.0 0.0 0.0 0.0 0.0 0.0 110.5218 1.87724 -375.655 12.7729 3.53749 -19.7989 0.0 87.4862 0.0 2.93524 25.3353 48.6963 0.0 0.0 0.0 0.0 0.0 0.0 0.378795 -0.0437384 -1.83297 0.0 10.4245 0.0 -10.873 1.507 -5.55344 0.0 -29.434 0.0 6.27289 -21.1439 2.56053 0.0 37.595 0.0 9.23053 7.35075 -3.56929 0.0 -43.385597 0.0 
  -5.714210205078125 8.501300048828124 9.165430297851563 40.8647 83.3531 114.841 -6.05193 -5.13371 -1.12433 15.9839 -2.82587 -4.03289 -2.11332 42.8278 702.054 86.0915 -72.1162 781.825 -126.9438 -0.392925 6.35574 -37.1071 9.97264 29.463 0.0 25.1237 0.0 14.4704 -7.46875 -6.37001 0.0 0.0 0.0 0.0 0.0 0.0 110.4079 1.87883 -375.661 12.6182 3.2464 -19.5079 0.0 87.9426 0.0 3.07249 25.6053 48.8677 0.0 0.0 0.0 0.0 0.0 0.0 0.423132 0.227104 -1.80753 0.0 10.4403 0.0 -11.151 1.1262999 -5.77487 0.0 -29.130001 0.0 6.54696 -21.2536 3.05482 0.0 32.1381 0.0 9.95503 8.21088 -5.13366 0.0 -42.681297 0.0 
  -5.676270141601562 8.585130004882812 9.1572900390625 39.5518 83.296 116.308 -6.11409 -4.81269 -1.1359 16.1927 -3.14788 -3.97867 -2.40869 42.4461 702.638 86.508 -72.0191 781.706 -127.084 -0.394256 6.41206 -37.339 9.97043 29.6938 0.0 26.0552 0.0 14.5985 -7.3428 -7.27787 0.0 0.0 0.0 0.0 0.0 0.0 110.281 1.9036 -375.955 12.4418 2.93593 -19.1461 0.0 88.4129 0.0 3.20841 25.9109 49.073 0.0 0.0 0.0 0.0 0.0 0.0 0.39585 0.575557 -1.8348 0.0 10.599 0.0 -11.0289 0.7879 -5.80313 0.0 -29.506199 0.0 6.75904 -21.1999 3.80971 0.0 26.8079 0.0 10.1833 9.54016 -6.76372 0.0 -42.2062 0.0 
  -5.635830078125 8.67218017578125 9.149199829101562 38.2374 83.2474 117.516 -6.16619 -4.66676 -0.973283 16.4405 -3.23356 -3.78606 -2.51133 41.9684 702.999 87.139 -71.9011 781.822 -127.340805 -0.340981 6.49184 -37.5244 9.97923 30.0839 0.0 26.8169 0.0 14.744 -7.10466 -8.32182 0.0 0.0 0.0 0.0 0.0 0.0 110.1578 1.83918 -376.126 12.2454 2.6532 -18.7841 0.0 88.826 0.0 3.44172 26.2613 48.9837 0.0 0.0 0.0 0.0 0.0 0.0 0.358766 1.05598 -1.77405 0.0 10.568 0.0 -10.8408 0.2951002 -5.62786 0.0 -29.1945 0.0 7.03307 -21.2331 5.12592 0.0 21.9417 0.0 10.2783 11.16313 -8.56641 0.0 -42.1809 0.0 
